<svg xmlns="http://www.w3.org/2000/svg" width="91.981" height="63.925" viewBox="0 0 91.981 63.925"><defs><style>.a{fill:#f7b47e;}.b{fill:#e6985f;}.c{fill:#442817;}.d,.p{fill:#fff;}.e{fill:#fae8b2;}.f{fill:#fbcaa7;}.g{fill:#3c3230;}.h{fill:#cc7543;}.i{fill:#c72358;}.j{fill:#dd3e78;}.k{fill:#861d48;}.l{fill:#5e1838;}.m{fill:#e9214a;}.n{fill:#42281c;}.o{fill:#b4e1e7;opacity:0.32;}.p{opacity:0.57;}.q{fill:#033947;}.r{fill:#f9b318;}.s{fill:#d79829;}.t{fill:#1b252d;}.u{fill:#262f3a;}.v{fill:#333d47;}.w{fill:#dbd2af;}.x{fill:#fbf4d3;}.y{fill:#701b42;}.z{fill:#e15f94;}.aa{fill:#3f3938;}.ab{fill:#3b2314;}.ac{fill:#332a29;}.ad{fill:#221c1c;}.ae{fill:#514e4e;}.af{fill:#231f20;}.ag{fill:#603813;}.ah{fill:#6e411a;}.ai{fill:#0c4f6a;}.aj{fill:#014157;}.ak{fill:#1f657d;}.al{fill:#0e748b;}.am{fill:#0e5c68;}.an{fill:#176d7a;}.ao{fill:#10464c;}.ap{fill:#00a4d3;}.aq{fill:#41c4e6;}.ar{fill:#d28753;}.as{fill:#b17a2b;}.at{fill:#442619;}.au{fill:#683a2b;}</style></defs><g transform="translate(-169.498 -506.545)"><g transform="translate(169.498 506.545)"><g transform="translate(54.629 0)"><path class="a" d="M238.482,95.218s2.2,2.587,2.257,2.67c.041.062,1.215-.884,2.136-1.429a2.937,2.937,0,0,1,.782-.36,17.882,17.882,0,0,1,2.34.193l-4.349-3.028-1.162.718Z" transform="translate(-238.482 -83.189)"/><path class="b" d="M238.482,93.981a25.457,25.457,0,0,0,2.389,2.477,2.937,2.937,0,0,1,.782-.36,17.882,17.882,0,0,1,2.34.193l-4.349-3.028Z" transform="translate(-236.478 -83.189)"/><path class="c" d="M252.637,93.771a10.958,10.958,0,0,1-2.339.294c-.1-.175.762-.615.734-.615s-1.2-.321-1.248-.541,2.322-.12,2.322-.12Z" transform="translate(-249.609 -82.889)"/><path class="d" d="M224.537,90.768a2.81,2.81,0,0,0,1.307.78c.032,0,.109-.129.185-.268.1-.176.191-.374.191-.374l.027-.211a10.442,10.442,0,0,1-2.078-3.046l0,.009A3.614,3.614,0,0,0,224.537,90.768Z" transform="translate(-212.981 -79.803)"/><path class="e" d="M224.337,90.3c.42.71,1.305.848,1.584.98.1-.176.191-.374.191-.374l.027-.211a10.442,10.442,0,0,1-2.078-3.046l0,.009A4.89,4.89,0,0,0,224.337,90.3Z" transform="translate(-212.873 -79.803)"/><path class="a" d="M225,100.023h0Z" transform="translate(-212.132 -87.265)"/><path class="a" d="M223.627,84.362a14.39,14.39,0,0,0,2.042,1.32c1.441.773,3.022,1.32,3.812.937.76-.368.933-1.659.991-1.683-.114-.032-2.163-.868-2.322-1.9a7.992,7.992,0,0,1,.647-3.014,8.53,8.53,0,0,0,.376,2.312c.22.633,1.675,1.267,1.775,1.221s.257-.587.257-.587.715.7.826.477c.189-.874-.534-3.953-.841-5.189-.08-.322-.131-.519-.131-.519-.165-1.6-2.441-2.4-3.872-2.716S221.04,77.94,221,79.059A8.568,8.568,0,0,0,223.627,84.362Z" transform="translate(-217.608 -72.177)"/><path class="f" d="M228.479,102a1.192,1.192,0,0,1-.758.636c-.486.069-1.066.046-1.23-.536S228.08,102.486,228.479,102Z" transform="translate(-216.199 -88.401)"/><path class="b" d="M225.825,84.362a14.387,14.387,0,0,0,2.042,1.32,2.3,2.3,0,0,0,1.463-1.008c.661-1.083-.22-4.477-.22-4.477s3.026-1.3,4.279-1.941c-.08-.322-.131-.519-.131-.519-.165-1.6-2.441-2.4-3.872-2.716s-6.147,2.918-6.184,4.037A8.568,8.568,0,0,0,225.825,84.362Z" transform="translate(-219.806 -72.177)"/><path class="d" d="M235.118,85.54a51.106,51.106,0,0,1,.083,5.422c1.376.5,1.766.39,2.477-.55s.209-3.826.029-4.717v0c-.034-.166-.056-.262-.056-.262Z" transform="translate(-229.2 -78.466)"/><path class="e" d="M235.917,85.54A51.115,51.115,0,0,1,236,90.962c1.693.358,1.913-.372,2.174-1.307a13.02,13.02,0,0,0-.014-3.289l.372-.482-.027-.188v0c-.034-.166-.056-.262-.056-.262Z" transform="translate(-229.999 -78.466)"/><path class="g" d="M236.79,97.192a4.334,4.334,0,0,0,1.122,2.147c-1.416-.569-1.747-.973-2.1-1.6A1.3,1.3,0,0,1,236.79,97.192Z" transform="translate(-229.339 -85.558)"/><path class="h" d="M220.876,85.823c.249.128.46.311.7.461.388.246.282-.347.26-.551-.067-.628-.154-1.253-.253-1.876-.2-1.24-.469-2.474-.779-3.69-.027-.1.129-.129.161-.031a26.821,26.821,0,0,1,1.012,4.424q.082.573.143,1.149a1.158,1.158,0,0,1-.046.757.345.345,0,0,1-.444.108,3.354,3.354,0,0,1-.849-.61C220.713,85.9,220.8,85.784,220.876,85.823Z" transform="translate(-207.603 -75.236)"/><path class="i" d="M221.774,76.625a2.859,2.859,0,0,0,.325,1.083,2.274,2.274,0,0,0,.593.679,29.876,29.876,0,0,0,3.468,1.872,1.406,1.406,0,0,0,2-.863,3.755,3.755,0,0,0,.2-1.392,16.121,16.121,0,0,0-.2-2.351l.59-.344,5.393-3.082.651-.372a7.558,7.558,0,0,0-3.909-3.523,7.163,7.163,0,0,0-6.155.59,6.59,6.59,0,0,0-2.3,2.3,6.128,6.128,0,0,0-.824,2.472A11.433,11.433,0,0,0,221.774,76.625Z" transform="translate(-220.563 -67.89)"/><path class="j" d="M221.567,68.92a9.228,9.228,0,0,1,5.274-.287,6.276,6.276,0,0,1,3.992,3.138l.147.455.651-.372a7.558,7.558,0,0,0-3.909-3.523A7.163,7.163,0,0,0,221.567,68.92Z" transform="translate(-217.4 -67.89)"/><path class="k" d="M237.968,85.437a2.859,2.859,0,0,0,.325,1.083,2.275,2.275,0,0,0,.593.679,29.874,29.874,0,0,0,3.468,1.872,1.405,1.405,0,0,0,2-.863,3.754,3.754,0,0,0,.2-1.392l-.231-.231a1.336,1.336,0,0,1-1.514,1.074c-1.266-.138-3.771-1.074-4.377-1.9A9.136,9.136,0,0,1,237.8,82.5,11.433,11.433,0,0,0,237.968,85.437Z" transform="translate(-236.757 -76.702)"/><path class="l" d="M236.789,87.824a2.275,2.275,0,0,0,.593.679,29.878,29.878,0,0,0,3.468,1.872,1.406,1.406,0,0,0,2-.863c.459-1.028,0-3.743,0-3.743l.59-.344-.025-.619-.84-.138s.431,4.263-.137,5.017a1.1,1.1,0,0,1-1.459.42A19.394,19.394,0,0,1,236.789,87.824Z" transform="translate(-235.253 -78.006)"/><path class="k" d="M245.476,88.685a1.357,1.357,0,0,1-.844.972,1.339,1.339,0,0,1-1.725-.771,1.8,1.8,0,0,1,.486-1.541A15.069,15.069,0,0,1,245.476,88.685Z" transform="translate(-239.705 -79.62)"/><path class="k" d="M216.644,79.818l.139.557.136.544,8.588-3.083s-.028-.44-.193-.578a18.022,18.022,0,0,0-2.009-.633C222.81,76.652,216.644,79.818,216.644,79.818Z" transform="translate(-209.322 -73.157)"/><path class="l" d="M216.644,81.336l.136.544,8.588-3.083s-.028-.44-.193-.578Z" transform="translate(-209.183 -74.119)"/><path class="l" d="M243.72,86.191a1.173,1.173,0,0,1,1.3,1.3,1.067,1.067,0,0,1-1.5,1.009c-.514-.165-.862-.33-.9-1.193A1.092,1.092,0,0,1,243.72,86.191Z" transform="translate(-239.15 -78.925)"/><path class="k" d="M243.6,87.92c.025.582.26.694.608.806a.876.876,0,0,0,.767-.1.708.708,0,0,0,.25-.583.792.792,0,0,0-.881-.88.69.69,0,0,0-.3.058A.742.742,0,0,0,243.6,87.92Z" transform="translate(-239.743 -79.511)"/><path class="m" d="M243.6,87.837c.025.582.26.694.608.806a.946.946,0,0,0,.625-.016.708.708,0,0,0,.25-.583.792.792,0,0,0-.881-.88.69.69,0,0,0-.3.058A.737.737,0,0,0,243.6,87.837Z" transform="translate(-239.601 -79.511)"/><path class="n" d="M223.567,89.131a.063.063,0,0,1,.069.066c0,.037-.015.072-.058.076s-.064-.028-.068-.066A.064.064,0,0,1,223.567,89.131Z" transform="translate(-210.176 -80.697)"/><path class="n" d="M223.732,85.213a1.8,1.8,0,0,1,1.395,1.62.065.065,0,0,1-.11.057c-.387-.448-.659-1.117-1.315-1.213C223.407,85.632,223.438,85.165,223.732,85.213Z" transform="translate(-211.662 -78.333)"/><path class="n" d="M223.738,83.33a.925.925,0,0,1,.949,1.01.135.135,0,0,1-.257.025,1.031,1.031,0,0,0-.266-.434,1.444,1.444,0,0,0-.435-.207C223.566,83.656,223.515,83.361,223.738,83.33Z" transform="translate(-211.27 -77.196)"/><path class="o" d="M222.939,78.22a10.408,10.408,0,0,1,1.514,4.707c.22,2.955-2,5.689-3.45,5.872-1.248-.918-7.377-5.065-7.707-6.643-.08-.38.092-.972,1.029-.678C216.811,80.3,222.939,78.22,222.939,78.22Z" transform="translate(-206.946 -74.119)"/><circle class="l" cx="0.33" cy="0.33" r="0.33" transform="translate(6.533 7.56)"/><path class="p" d="M215.927,78.878a12.083,12.083,0,0,1,1.311,4.655,6.414,6.414,0,0,1-3.031,5.213,10.476,10.476,0,0,0,1.762-5.065,9.75,9.75,0,0,0-1.3-4.4Z" transform="translate(-200.086 -74.515)"/><path class="j" d="M245.223,70.834a5.69,5.69,0,0,0-2.642,1.358,8.1,8.1,0,0,0-1.872,5.725,5.968,5.968,0,0,1,0-4.294A4.293,4.293,0,0,1,245.223,70.834Z" transform="translate(-238.433 -69.641)"/></g><g transform="translate(42.838 30.146)"><path class="q" d="M220.962,145.756l4.814-.544.584-.066s16.583-3.679,17.828,1.188c.583,2.279-.025,6.331-.837,10-.922,4.165-2.107,7.832-2.107,7.832a5.153,5.153,0,0,1-.8.422L243.1,166.7a18.4,18.4,0,0,1,2.5,1.1,5.24,5.24,0,0,1,.084,1.221c-.01.468-.062.886-.194.872-.2-.021-.592-.088-1.121-.188l-.055-.01-.049-.009-.131-.025-.039-.007-.09-.018h0l-.192-.037-.01,0c-3.145-.613-9.372-1.975-10.868-2.387l-.012,0-.058-.016-.029-.008-.03-.009-.036-.011-.023-.007-.032-.01-.013,0-.034-.012-.008,0-.026-.01,0,0-.017-.009a3.142,3.142,0,0,1,.149-.493c-.311.052-.631.1-.962.154,0-2.774,5.773-17.772,5.773-17.772s-13.526.227-15.677-.17-2.547-2.886-2.547-2.886Z" transform="translate(-219.341 -143.814)"/></g><g transform="translate(0 10.728)"><path class="k" d="M343.757,108.4s.073-.918-.073-1.064-12.374.015-15.121.918c-2.872.944-7.788,9.349-9.175,14.607-.073.7,5.358.293,5.358.293Z" transform="translate(-318.892 -102.372)"/><g transform="translate(0.89 5.753)"><g transform="translate(0)"><path class="i" d="M307.983,128.319c.2,0,1.134,0,2.53-.007,6.217-.017,21.646-.066,22.9-.066,1.541,0,1.725-.735,1.762-1.578.016-.372.068-3.351.121-6.631.033-2.015.066-4.143.091-5.851.027-1.814.045-3.152.045-3.374,0-.771-.514-1.064-1.688-1.1,0,0-13.983-1.064-18.167.734-4.6,1.978-9.026,13.367-9.343,15.016-.008.041-.013.077-.016.106C306.111,126.741,306.882,128.319,307.983,128.319Z" transform="translate(-306.211 -109.398)"/><path class="r" d="M306.437,135.258c6.217-.017,21.646-.066,22.9-.066,1.541,0,1.725-.735,1.762-1.578.016-.372.068-3.351.121-6.631.033-2.015.066-4.143.091-5.851-3.577-.127-15.726-.5-16.851.2-.994.621-5.733,7.093-7.486,11.1C306.414,133.722,306.159,134.756,306.437,135.258Z" transform="translate(-302.135 -116.345)"/></g><path class="k" d="M369.391,152.71c.2,0,1.134,0,2.53-.007-.278-.5-.023-1.536.541-2.825-2.038,0-3.741-.01-4.817-.027-.008.041-.013.077-.016.106C367.52,151.132,368.29,152.71,369.391,152.71Z" transform="translate(-367.619 -133.79)"/><path class="s" d="M306.667,144.467c6.217-.017,21.646-.066,22.9-.066,1.541,0,1.725-.735,1.762-1.578.016-.372.068-3.351.121-6.631-.509,1.82-1.5,4.831-2.545,5.086s-13.855.369-21.7.365C306.644,142.932,306.389,143.965,306.667,144.467Z" transform="translate(-302.365 -125.554)"/></g><path class="j" d="M340.419,111.888c-.294.734-13.286.477-14.424,1.248-1.346.912-8,12.956-8.4,12.662s6.273-13.069,7.927-13.763C326.656,111.558,340.706,111.17,340.419,111.888Z" transform="translate(-314.819 -104.908)"/><path class="t" d="M335.382,139.363c.8.078.8,1.869.091,2.089s-29.376.5-29.659.333-.141-1.817.141-2.147S334.251,139.253,335.382,139.363Z" transform="translate(-305.66 -121.682)"/><path class="t" d="M314.151,171.658c.144-.043.3-.094.458-.15,1.56-.547,3.682-1.669,3.07-2.7a9.881,9.881,0,0,0-3.333-.991,1.822,1.822,0,0,0-1.492.316C311.972,169.115,312.594,172.125,314.151,171.658Z" transform="translate(-288.188 -138.855)"/><path class="i" d="M322.144,171.658c.144-.043.3-.094.458-.15a28.733,28.733,0,0,0-.263-3.695,1.822,1.822,0,0,0-1.492.316C319.964,169.115,320.587,172.125,322.144,171.658Z" transform="translate(-296.257 -138.855)"/><g transform="translate(23.332 35.649)"><path class="u" d="M289.967,185.353a7.97,7.97,0,0,1,6.643.13c2.631,1.2,4.759,3.173,5.393,5.575a8.7,8.7,0,0,1-2.058,8.258,8.846,8.846,0,0,1-7.425,2.605c-2.449-.183-6.512-2.189-7.4-5.783a10.18,10.18,0,0,1,1.459-7.92A13.321,13.321,0,0,1,289.967,185.353Z" transform="translate(-284.847 -184.693)"/><path class="v" d="M294.213,190.709a6.124,6.124,0,0,1,5.01-.1,6.668,6.668,0,0,1,3.721,4.235,6.312,6.312,0,0,1-1.493,5.99,6.415,6.415,0,0,1-5.386,1.89c-1.776-.132-4.724-1.587-5.367-4.195a7.386,7.386,0,0,1,1.058-5.745A9.659,9.659,0,0,1,294.213,190.709Z" transform="translate(-287.948 -187.964)"/><path class="t" d="M294.541,201.229a5.028,5.028,0,0,0,9.345-2.387,4.966,4.966,0,0,0-2.86-4.687,4.521,4.521,0,0,0-5.04.619,4.722,4.722,0,0,0-.463.39,5.274,5.274,0,0,0-1.474,2.653A4.694,4.694,0,0,0,294.541,201.229Z" transform="translate(-290.032 -190.086)"/><path class="d" d="M295.927,201.821a4.445,4.445,0,0,0,8.258-2.034c0-.025,0-.05,0-.076a4.389,4.389,0,0,0-2.527-4.142,4,4,0,0,0-4.455.547,4.188,4.188,0,0,0-.409.345,4.66,4.66,0,0,0-1.3,2.344A4.15,4.15,0,0,0,295.927,201.821Z" transform="translate(-290.911 -190.975)"/><path class="w" d="M295.928,207.428a4.445,4.445,0,0,0,8.258-2.034,5.063,5.063,0,0,1-4.194,3.441,4.166,4.166,0,0,1-4.5-4.423A4.15,4.15,0,0,0,295.928,207.428Z" transform="translate(-290.912 -196.583)"/></g><path class="u" d="M235.416,201.69a3.448,3.448,0,0,0,1.015,1.094,5.3,5.3,0,0,0,2.674.613c.989.073,12.507.073,20.2.049,3.87-.012,6.774-.031,6.884-.049l-6.936-5.01s-20.094-1.872-21.911-1.211S234.425,200.093,235.416,201.69Z" transform="translate(-204.277 -156.486)"/><path class="t" d="M235.416,201.69a3.448,3.448,0,0,0,1.015,1.094c-.519-1.642-.061-2.643,1.738-3,1.715-.343,16.676,2.732,21.137,3.664,3.87-.012,6.774-.031,6.884-.049l-6.936-5.01s-20.094-1.872-21.911-1.211S234.425,200.093,235.416,201.69Z" transform="translate(-204.277 -156.486)"/><path class="v" d="M299,201.925a2.167,2.167,0,1,0,2.167-2.166A2.167,2.167,0,0,0,299,201.925Z" transform="translate(-267.871 -158.128)"/><path class="t" d="M301.834,203.633a1.042,1.042,0,1,0,1.042-1.042A1.042,1.042,0,0,0,301.834,203.633Z" transform="translate(-269.551 -159.836)"/><path class="t" d="M198.834,195.689c.012.035.609,1.17,1.33,2.483a4.925,4.925,0,0,1,1.376-2.477l-.724-1.218A21.234,21.234,0,0,0,198.834,195.689Z" transform="translate(-121.789 -154.944)"/><g transform="translate(73.534 34.955)"><path class="u" d="M173.442,183.644a8.421,8.421,0,0,1,7.019.138c2.78,1.266,5.029,3.353,5.7,5.891a9.193,9.193,0,0,1-2.175,8.726,9.347,9.347,0,0,1-7.845,2.753c-2.588-.193-6.882-2.312-7.817-6.111a10.756,10.756,0,0,1,1.542-8.368A14.077,14.077,0,0,1,173.442,183.644Z" transform="translate(-168.031 -182.947)"/><path class="v" d="M177.928,189.3a6.471,6.471,0,0,1,5.293-.1,7.044,7.044,0,0,1,3.932,4.475,6.67,6.67,0,0,1-1.577,6.33,6.78,6.78,0,0,1-5.691,2c-1.877-.14-4.992-1.677-5.671-4.432a7.806,7.806,0,0,1,1.118-6.07A10.214,10.214,0,0,1,177.928,189.3Z" transform="translate(-171.309 -186.403)"/><path class="t" d="M178.274,200.42a5.312,5.312,0,0,0,9.874-2.523,5.247,5.247,0,0,0-3.021-4.952,4.776,4.776,0,0,0-5.326.654,4.952,4.952,0,0,0-.489.413,5.57,5.57,0,0,0-1.558,2.8A4.962,4.962,0,0,0,178.274,200.42Z" transform="translate(-173.51 -188.646)"/><path class="d" d="M179.74,201.045a4.7,4.7,0,0,0,8.725-2.149c0-.027,0-.054,0-.08a4.636,4.636,0,0,0-2.67-4.377,4.221,4.221,0,0,0-4.707.578,4.465,4.465,0,0,0-.432.365,4.924,4.924,0,0,0-1.376,2.477A4.384,4.384,0,0,0,179.74,201.045Z" transform="translate(-174.439 -189.585)"/><path class="w" d="M179.741,206.97a4.7,4.7,0,0,0,8.725-2.149,5.349,5.349,0,0,1-4.431,3.636c-2.749.282-4.746-1.942-4.754-4.674A4.384,4.384,0,0,0,179.741,206.97Z" transform="translate(-174.44 -195.51)"/><path class="x" d="M182.076,200.022a25.285,25.285,0,0,0,2.469,4.013c.523.275,3.661-1.129,4.762-2.119s.743-1.532.743-1.532l-4.294,1.037-2.3-3.875A4.925,4.925,0,0,0,182.076,200.022Z" transform="translate(-177.235 -191.749)"/></g><path class="u" d="M182.815,191.239c.014.059.527,1.129,1.162,2.4a24.216,24.216,0,0,0,2.435,4.284c.44.11,4.588-2.019,4.771-2.643s-.991-2.422-1.468-2.312a7.693,7.693,0,0,0-1.181.543c-.7.366-1.425.779-1.425.779l-2.569-4.845Z" transform="translate(-105.091 -151.907)"/><path class="t" d="M188.64,191.239c.014.059.526,1.129,1.162,2.4l1.316-.671,2.056,3.138,1.541-.055s-.392-2.214-.355-2.54c-.7.366-1.425.779-1.425.779l-2.569-4.845Z" transform="translate(-110.916 -151.907)"/><path class="i" d="M171.372,189.133c.138.193,4.167-4.017,4.167-4.017l.457.411,2.642-1.569-.137-.688h0c.129-.029,8.406-1.9,9.99-2.422-.615-1.718-2.9-3.222-5.6-3.8a10.625,10.625,0,0,0-4.381-.038,7.639,7.639,0,0,0-1.117.33,9.168,9.168,0,0,0-2.659,1.587,9.857,9.857,0,0,0-3.087,4.589A10.475,10.475,0,0,0,171.372,189.133Z" transform="translate(-97.739 -144.287)"/><path class="j" d="M178.884,180.426l-6.65,2.844c.129-.029,8.406-1.9,9.99-2.422-.615-1.718-2.9-3.222-5.6-3.8a10.625,10.625,0,0,0-4.381-.038c-.1.022-.208.047-.312.074l-.112.03-.141.04c-.042.012-.085.025-.128.039l-.1.034-.074.024q-.124.043-.247.089a3.517,3.517,0,0,0,.42.808,10.28,10.28,0,0,1,3.879.1A5.484,5.484,0,0,1,178.884,180.426Z" transform="translate(-91.471 -144.287)"/><path class="y" d="M188.253,188.831c.453-.6,6.435-6.824,9.337-9.763a10.28,10.28,0,0,0-3.879-.1,3.519,3.519,0,0,1-.42-.808,9.168,9.168,0,0,0-2.659,1.587A35.609,35.609,0,0,0,188.253,188.831Z" transform="translate(-113.638 -145.106)"/><path class="z" d="M185.233,177.342a3.519,3.519,0,0,0,.42.808,10.28,10.28,0,0,1,3.879.1c.51-.517.926-.933,1.2-1.2a10.625,10.625,0,0,0-4.381-.038c-.1.022-.208.047-.312.074l-.112.03-.141.04c-.043.012-.085.025-.128.039l-.1.034-.074.024Q185.356,177.3,185.233,177.342Z" transform="translate(-105.58 -144.287)"/><path class="y" d="M178.795,135.9s15.828,9.056,16.194,12.084c.073,1.1-6.936,4.367-6.936,4.367Z" transform="translate(-107.282 -119.623)"/><path class="y" d="M262.607,167.486c.055-.083,2.037-4.459,1.927-4.927s-12.607-.854-12.992-.551,10.24,6.028,10.24,6.028Z" transform="translate(-208.937 -135.302)"/><path class="k" d="M275.553,163.653c-4.3-2.085-11.157-2.532-15.635-.881s-9.139,5.322-11.047,9.689c13.249,4.258,28.811,8.037,32.04,8.552C282.71,174.553,279.853,165.738,275.553,163.653Z" transform="translate(-225.864 -135.221)"/><path class="aa" d="M249.75,159.065c.44.352,21.122.674,21.929.454.466-.127.809-1.292.964-2.352a4.1,4.1,0,0,0,.009-1.707c-.349-.645-19.743-.383-20.367.144A14.8,14.8,0,0,0,251,156.95C250.227,157.841,249.486,158.855,249.75,159.065Z" transform="translate(-216.842 -131.189)"/><path class="g" d="M249.977,161.835c.44.352,21.122.674,21.929.454.467-.127.809-1.292.964-2.352-4.414-.1-17.878-.372-21.647-.218C250.454,160.61,249.713,161.624,249.977,161.835Z" transform="translate(-217.074 -133.959)"/><path class="e" d="M211.143,118.84s.743,3.688-1.486,4.762c-.33-2.89-.193-3.358-.165-3.441S210.7,118.785,211.143,118.84Z" transform="translate(-137.106 -109.337)"/><path class="t" d="M204.331,122.147l.106.013h0a6.544,6.544,0,0,0,1.737.069,25.344,25.344,0,0,0,.138-3.771s1.506-1.085,2.476-1.855a3.719,3.719,0,0,0,.8-.733c.027-.248-3.826-.633-3.826-.633l-.193.933Z" transform="translate(-133.286 -107.166)"/><path class="i" d="M213.968,116.743a3.822,3.822,0,0,0,.156.538c.532,1.586,2.239,5.9,2.239,5.9l2.832-.4,1.9-.265-.33-1.321a11.705,11.705,0,0,0,1.234.041h0c.062,0,.118-.008.168-.013.084-.106.718-4.1,1.009-5.97.089-.569.147-.939.147-.939-1.046-.138-6.207-.912-6.8-.468a12.777,12.777,0,0,0-2.546,2.8A.331.331,0,0,0,213.968,116.743Z" transform="translate(-151.274 -106.249)"/><path class="k" d="M224.375,122.694c.532,1.586,2.239,5.9,2.239,5.9l2.832-.4-.951-2.972-.385-1.5Z" transform="translate(-161.796 -111.662)"/><path class="j" d="M213.968,116.657a17.218,17.218,0,0,1,3.124-2.061c.33-.057,3.269.3,6.028.658l.046.006c.089-.569.147-.939.147-.939-1.046-.138-6.207-.912-6.8-.468A12.777,12.777,0,0,0,213.968,116.657Z" transform="translate(-151.259 -106.249)"/><path class="t" d="M230.5,108.76c0-.073-1.725-5.891-2-6.129a4.527,4.527,0,0,0-1.138-.5l-.22.569a2.264,2.264,0,0,1,.973.477c.22.294,1.872,5.707,1.872,5.707Z" transform="translate(-163.999 -99.266)"/><path class="k" d="M224.865,118.953l.1-.041s.289.069.468.592.881,3.193.482,3.51-5.271.454-5.409.358a10.348,10.348,0,0,1-.5-1.748Z" transform="translate(-156.518 -109.382)"/><path class="i" d="M227.276,118.808a8.584,8.584,0,0,1,.1,3.349c-.349.339-4.523.3-4.78.119a4.988,4.988,0,0,1-.413-2.5C222.542,119.056,226.758,118.549,227.276,118.808Z" transform="translate(-158.892 -109.277)"/><g transform="translate(53.685 43.773)"><path class="ab" d="M225.364,205.155s12.3,2.037,13.213,2.147a3.8,3.8,0,0,1-.165,1.018s-12.992-2.119-13.213-2.229Z" transform="translate(-225.199 -205.155)"/></g><path class="u" d="M204.331,116.177c1.162.152,2.289.3,3.173.427a3.719,3.719,0,0,0,.8-.733c.027-.248-3.826-.633-3.826-.633S204.42,115.608,204.331,116.177Z" transform="translate(-131.981 -107.166)"/><path class="t" d="M234.893,94.943a3.1,3.1,0,0,1,1.982.8,5.359,5.359,0,0,1,.248,3.138,2.282,2.282,0,0,1-1.679,1.294C235.388,100.063,234.865,95.713,234.893,94.943Z" transform="translate(-174.052 -94.909)"/><path class="k" d="M204.677,136.96s5.037,14.451,5.257,15c-1.266,4.074-4.569,15.359-4.569,15.359s9.909-15.8,9.964-16.075-7.821-14.682-7.821-14.682Z" transform="translate(-139.27 -120.026)"/><path class="i" d="M185.68,166.919s.991-.055,4.514.165c.364-.364,7.285-9.729,10.874-15.354a19.678,19.678,0,0,0,2.089-3.8.752.752,0,0,0,.031-.225c-.029-.456-.944-1.466-2.285-2.715q-.208-.194-.431-.4c-.215-.2-.44-.4-.67-.6l-.371-.325c-3.982-3.468-9.7-7.773-9.7-7.773s-.33,0-.781.017c-.981.031-2.533.115-2.5.341.05.3,4.874,11.848,5.67,13.979a1.967,1.967,0,0,1,.11.335C192.176,150.734,185.68,166.919,185.68,166.919Z" transform="translate(-118.214 -119.623)"/><path class="y" d="M206.656,156.7s-.275.716-.422.771-3.945,1.174-4.661.881-2.422-5.1-2.441-5.413.477-.605.477-.605Z" transform="translate(-127.023 -129.53)"/><path class="j" d="M185.68,135.914c1.2,1.061,5.535,4.908,8.9,8.1l.343.326q.364.348.709.682l.412.4c1.668,1.635,2.833,2.9,2.77,3.183-.108.484-.583,1.882-1.012,3.123a19.678,19.678,0,0,0,2.089-3.8.752.752,0,0,0,.031-.225c-.029-.456-.944-1.466-2.285-2.715q-.208-.194-.431-.4c-.215-.2-.44-.4-.67-.6l-.371-.325c-3.982-3.468-9.7-7.773-9.7-7.773S186.131,135.9,185.68,135.914Z" transform="translate(-114.948 -119.623)"/><path class="g" d="M206.315,156.457a.8.8,0,0,1-.193.468c-.165.138-4.107,1.392-4.927.964-.633-.33-2.229-5.065-2.2-5.258a.473.473,0,0,1,.22-.3Z" transform="translate(-126.627 -129.53)"/><path class="aa" d="M201.2,156.934a10.96,10.96,0,0,0,2.908-.415,5.146,5.146,0,0,0,1.991-.686c.11-.386-2.588-4.184-3.083-4.514a.472.472,0,0,0-.165-.023,17.271,17.271,0,0,0-3.853.409A21.863,21.863,0,0,0,201.2,156.934Z" transform="translate(-126.408 -128.906)"/><g transform="translate(72.001 23.333)"><path class="ac" d="M206.342,154.215h0a.3.3,0,0,0,.1.136c.051.028,2.811-.353,3.256-.435a.641.641,0,0,0,.077-.017c.069-.036-.147-.221-.147-.221-.112-.036-3.226.367-3.289.409C206.314,154.109,206.32,154.162,206.342,154.215Z" transform="translate(-206.323 -153.676)"/><path class="ad" d="M206.342,154.215h0c.453-.058,3.175-.443,3.224-.439s.1.085.135.14a.641.641,0,0,0,.077-.017c.069-.036-.147-.221-.147-.221-.112-.036-3.226.367-3.289.409C206.314,154.109,206.32,154.162,206.342,154.215Z" transform="translate(-206.323 -153.676)"/></g><g transform="translate(72.554 24.118)"><path class="ac" d="M204.761,156.262h0a.3.3,0,0,0,.1.137c.051.027,2.939-.425,3.383-.507a.778.778,0,0,0,.077-.017c.069-.036-.147-.222-.147-.222-.112-.036-3.354.438-3.417.481C204.733,156.156,204.739,156.209,204.761,156.262Z" transform="translate(-204.742 -155.652)"/><path class="ad" d="M204.761,156.262h0c.453-.058,3.3-.514,3.352-.51s.1.085.135.14a.778.778,0,0,0,.077-.017c.069-.036-.147-.222-.147-.222-.112-.036-3.354.438-3.417.481C204.733,156.156,204.739,156.209,204.761,156.262Z" transform="translate(-204.742 -155.652)"/></g><g transform="translate(73.072 24.903)"><path class="ac" d="M203.214,158.371h0a.3.3,0,0,0,.1.137c.051.027,3.085-.555,3.529-.637a.665.665,0,0,0,.077-.017c.069-.036-.147-.222-.147-.222-.112-.036-3.5.569-3.563.612C203.186,158.264,203.192,158.317,203.214,158.371Z" transform="translate(-203.195 -157.63)"/><path class="ad" d="M203.214,158.371h0c.453-.058,3.448-.645,3.5-.64s.1.085.135.14a.665.665,0,0,0,.077-.017c.069-.036-.147-.222-.147-.222-.112-.036-3.5.569-3.563.612C203.186,158.264,203.192,158.317,203.214,158.371Z" transform="translate(-203.195 -157.63)"/></g><g transform="translate(73.724 25.903)"><path class="ac" d="M201.33,160.871h0a.305.305,0,0,0,.1.136c.051.027,3.243-.538,3.689-.62a.664.664,0,0,0,.077-.017c.07-.036-.147-.222-.147-.222-.112-.035-3.659.551-3.722.595C201.3,160.764,201.308,160.817,201.33,160.871Z" transform="translate(-201.311 -160.147)"/><path class="ad" d="M201.33,160.871h0c.453-.058,3.607-.628,3.657-.624s.1.085.135.14a.664.664,0,0,0,.077-.017c.07-.036-.147-.222-.147-.222-.112-.035-3.659.551-3.722.595C201.3,160.764,201.308,160.817,201.33,160.871Z" transform="translate(-201.311 -160.147)"/></g><path class="k" d="M185.759,185.193s.991-.055,4.514.165c.479-.479,12.278-16.5,12.962-19.153a4.913,4.913,0,0,1-1.927.783c-2.18.489-7.375,1.277-9.108,1.52a1.964,1.964,0,0,1,.11.335C192.255,169.008,185.759,185.193,185.759,185.193Z" transform="translate(-118.293 -137.897)"/><path class="ae" d="M200.242,156.522a5.146,5.146,0,0,0,1.991-.686c.11-.386-2.588-4.184-3.083-4.514a.472.472,0,0,0-.165-.023,25.823,25.823,0,0,1,2.991,4.427C202.043,155.865,200.846,156.294,200.242,156.522Z" transform="translate(-122.545 -128.909)"/><path class="aa" d="M191.7,158.878c.054.006.567-.121,1.042-.245.49-.129,1.1-.3,1.591-.433q-.208-.194-.431-.4c-.5.135-1.095.3-1.572.428-.493.137-.864.243-.887.26C191.374,158.547,191.7,158.878,191.7,158.878Z" transform="translate(-111.65 -132.832)"/><path class="aa" d="M194.212,155.994c-.028.055.183.293.282.323a2.825,2.825,0,0,0,.647-.131c.484-.1,1.131-.287,1.6-.386l-.371-.325-1.583.345A2.656,2.656,0,0,0,194.212,155.994Z" transform="translate(-115.151 -131.427)"/><path class="j" d="M202.6,164.191c.129.233-7.334,1.385-7.53,1.314a20.232,20.232,0,0,1-1.5-3.312c.1.078,1.712,2.88,1.712,2.88S202.471,163.957,202.6,164.191Z" transform="translate(-120.759 -135.477)"/><path class="i" d="M287.427,184.4s1.028-8.919-3.487-12.919-12.368-3.267-16-1.615-7.56,4.037-8.515,7.12C265.37,179,287.427,184.4,287.427,184.4Z" transform="translate(-236.301 -139.305)"/><path class="j" d="M266.124,171.331c1.659.511,4.845,2.092,5.872,5.212a24.416,24.416,0,0,1,.954,8.772l-1.468-.257s.735-5.835-.771-8.845c-2.129-4.257-7.707-4.844-7.744-5.138S264.693,170.891,266.124,171.331Z" transform="translate(-222.275 -140.734)"/><path class="k" d="M285.615,181.646c.221-.381-13.054-4.062-13.362-3.367C272.005,178.835,285.027,182.661,285.615,181.646Z" transform="translate(-239.062 -145.124)"/><path class="k" d="M287.326,186.492c.221-.382-13.053-4.062-13.362-3.367C273.716,183.682,286.738,187.508,287.326,186.492Z" transform="translate(-241.519 -148.046)"/><path class="k" d="M289.036,191.339c.221-.381-13.054-4.062-13.362-3.367C275.426,188.528,288.448,192.354,289.036,191.339Z" transform="translate(-243.974 -150.969)"/><path class="aa" d="M182.168,199.845a22.035,22.035,0,0,0,1.743,3.267c.376.046,4.991-2.2,5.193-2.7a1.52,1.52,0,0,0-.206-.856,5.749,5.749,0,0,0-1.2-1.961,20.865,20.865,0,0,0-2.853,1.349l-.33-.459s-1.135.634-1.827,1.035A5.294,5.294,0,0,0,182.168,199.845Z" transform="translate(-102.755 -156.824)"/><path class="g" d="M182.168,202.77a22.036,22.036,0,0,0,1.743,3.267c.376.046,4.991-2.2,5.193-2.7a1.519,1.519,0,0,0-.206-.856c-.955.511-4.5,2.522-4.721,2.5a13.361,13.361,0,0,1-1.487-2.534A5.284,5.284,0,0,0,182.168,202.77Z" transform="translate(-102.755 -159.75)"/><path class="u" d="M197.121,197.459" transform="translate(-116.69 -156.742)"/><path class="af" d="M214.139,136.312c.275-.092,5.432,13.548,5.615,14.171.122.416-3.712,11.579-5.753,16.245-.193.44-.37.294-.449.33-.239.11,5.725-16.442,5.725-16.442s-5.615-14.093-5.579-14.2S214.139,136.312,214.139,136.312Z" transform="translate(-147.453 -119.873)"/><path class="af" d="M263.961,197.326c-.11-.037-13.666-1.7-20.113-3.34-8.5-2.156-26.646-7.524-26.719-7.414-.073.33-.147.771.147.918a226.937,226.937,0,0,0,38.83,9.91,58.232,58.232,0,0,0,7.781.807Z" transform="translate(-195.027 -150.177)"/><path class="t" d="M296.652,144.909s.165.551-.055.771-17.072-.535-18.608-1.1c-1.046-.385-4.9-12.277-4.679-12.827s.881-.276.991.11,3.083,10.24,4.294,11.561C279.75,144.083,296.321,144.469,296.652,144.909Z" transform="translate(-251.28 -116.936)"/><path class="t" d="M331.035,131.477c.411-.37.771.11.826.991s1.835,21.654,1.835,21.654l-1.064-.459S330.485,131.972,331.035,131.477Z" transform="translate(-311.908 -116.882)"/></g><g transform="translate(39.462 31.447)"><path class="ag" d="M226.938,201.036c.294.189,8.541,2,11.757,2.6.529.1.922.166,1.121.188.131.014.184-.4.194-.872a5.239,5.239,0,0,0-.084-1.221,18.4,18.4,0,0,0-2.5-1.1l-3.387-2.7-2.233.152-2.886.2a6.116,6.116,0,0,0-1.654,1.866A3.42,3.42,0,0,0,226.938,201.036Z" transform="translate(-213.674 -177.744)"/><path class="ah" d="M230.253,201.267c.294.189,8.541,2,11.757,2.6-.229-.494-.673-1.633-.934-1.72-.33-.11-2.349-.771-2.349-.771s-1.838-1.591-3.6-3.065l-2.886.2a6.116,6.116,0,0,0-1.654,1.866A3.419,3.419,0,0,0,230.253,201.267Z" transform="translate(-216.989 -177.975)"/><path class="ab" d="M226.942,204.4c.342.22,11.467,2.635,12.878,2.788.131.014.184-.4.194-.872-2.315-.489-10.149-2.139-12.739-2.81A3.418,3.418,0,0,0,226.942,204.4Z" transform="translate(-213.678 -181.107)"/><g transform="translate(0 0)"><path class="ai" d="M230.112,149.215s.4,2.49,2.547,2.887,15.677.17,15.677.17-5.773,15-5.773,17.772c7.414-1.132,9.452-2.6,9.452-2.6s1.185-3.667,2.107-7.832c.811-3.665,1.419-7.717.836-10-1.246-4.868-17.828-1.189-17.828-1.189l-.584.066-4.814.543Z" transform="translate(-230.112 -147.091)"/><path class="aj" d="M239.727,151.982c.423.893,1.055,1.948,1.767,2.192,1.173.4,13.254-.176,15.415.365.619-.7,1.564-1.685,1.944-1.613.587.11-.991,2.019-.991,2.019s2.165.257,1.762.734c-.265.313-1.6.019-2.486-.221-.526,2.6-2.923,11-4.106,14.81,1.222-1.41,3.511-3.443,4.924-3.208,1.128.226,1.41,1.692,1.128,1.749a31.251,31.251,0,0,0-4.005,1.128c.012.165,3.811-.349,3.664,0a22.151,22.151,0,0,1-4.982,1.479c2.037-.174,6.248-1.027,6.248-1.027s-2.037,1.472-9.452,2.6c0-2.773,5.773-17.772,5.773-17.772s-13.526.227-15.677-.17-2.547-2.887-2.547-2.887Z" transform="translate(-238.107 -150.04)"/><path class="ak" d="M230.112,148.49c-.028.027,10.928-.578,12.469-.551s3.276-.055,4.734,1.569c1.118,1.245.652,7.276.373,10.1.811-3.665,1.419-7.717.836-10-1.246-4.868-17.828-1.189-17.828-1.189l-.584.066Z" transform="translate(-223.678 -147.091)"/></g></g><g transform="translate(36.413 11.147)"><path class="al" d="M251.766,116.173a4.653,4.653,0,0,0,1.766,3.627c7.818-.881,10.2-1.689,11.781-2.863-.058-.444-.1-.781-.126-1.032-.058-.539-.058-.692-.058-.692a33.431,33.431,0,0,0,2.784-4.053c1.414-2.417,2.818-5.552,2.721-8.352-.147-4.221-2.789-4.955-2.789-4.955-.808-.183-4.221.808-8.258,4C256.476,104.315,251.532,111.29,251.766,116.173Z" transform="translate(-251.758 -97.091)"/><path class="am" d="M265.173,142.568a4.653,4.653,0,0,0,1.766,3.627c7.818-.881,10.2-1.689,11.781-2.863-.058-.444-.1-.781-.126-1.032-.058-.539-.058-.692-.058-.692s-.912.164-2.27.372C272.966,142.485,267.03,143.253,265.173,142.568Z" transform="translate(-265.165 -123.486)"/><path class="an" d="M262.228,119.225c1.358-.208,2.27-.372,2.27-.372a33.431,33.431,0,0,0,2.784-4.053c-.95-2.78-3.768-10.816-4.611-10.93a13.554,13.554,0,0,0-4.046,9.5C258.525,117.152,260.476,118.655,262.228,119.225Z" transform="translate(-251.127 -100.732)"/><path class="ao" d="M265.489,141.98a6.747,6.747,0,0,0,2.328.321c-.058-.539-.058-.692-.058-.692S266.847,141.772,265.489,141.98Z" transform="translate(-254.387 -123.486)"/><path class="an" d="M250.238,105.506s-.826,3.248-1.954,4.4a11.054,11.054,0,0,0-.165-3.413S249.523,104.983,250.238,105.506Z" transform="translate(-229.912 -101.652)"/><path class="ap" d="M250.957,102.27c.248.275,2.45-2.147,2.422-2.45a1.028,1.028,0,0,0-.175-.3h0a26.306,26.306,0,0,0-3.237-3.556,7.771,7.771,0,0,0-1.726.915h0l-.118.075C248.011,97.4,250.709,101.995,250.957,102.27Z" transform="translate(-233.053 -95.966)"/><path class="an" d="M250.957,103.661c.248.275,2.45-2.147,2.422-2.45a1.028,1.028,0,0,0-.175-.3c-.3.361-1.889,2.086-2.109,2.032-.3-.076-2.5-4.008-2.855-4.672l-.118.075C248.011,98.789,250.709,103.386,250.957,103.661Z" transform="translate(-233.053 -97.357)"/><path class="aq" d="M248.563,96.881a5.494,5.494,0,0,1,1.542-.3c.291.091,3.373,2.9,3.42,2.941a26.308,26.308,0,0,0-3.237-3.556A7.77,7.77,0,0,0,248.563,96.881Z" transform="translate(-233.375 -95.966)"/><path class="an" d="M289.805,132.231c-.5.563-5.132.313-4.757-.063s2.316-1.878,2.316-1.878-.5-3.192-.125-3.5S290.306,131.667,289.805,132.231Z" transform="translate(-284.196 -114.54)"/></g><g transform="translate(46.503 13.677)"><g transform="translate(0 0)"><path class="ar" d="M217.421,118.66a15.62,15.62,0,0,1,2.964.431c.954.321,1.018.679.89,1.028s-1.532-.138-2.385-.321a10.941,10.941,0,0,0-1.376-.22Z" transform="translate(-197.694 -112.179)"/><path class="ar" d="M228.663,125.162a1.2,1.2,0,0,1-.569.789,1.729,1.729,0,0,1-1.514-.3,7.89,7.89,0,0,1-.147-1.257.4.4,0,0,0,.193.1A10.356,10.356,0,0,0,228.663,125.162Z" transform="translate(-208.615 -115.634)"/><path class="b" d="M225.745,118.275a1.025,1.025,0,0,1,.954.147c.55.344.807,2.771.587,3.1s-1.72.358-1.9.193a1.546,1.546,0,0,1-.275-.633s.963-.248.991-.358S225.745,118.275,225.745,118.275Z" transform="translate(-206.789 -111.913)"/><path class="a" d="M226.859,117.838s2.973-.293,3.505,0a4.219,4.219,0,0,1,.862,2.863c-.2.386-1.762.5-1.853-.239.605-.092.808-.128.862-.385s.22-.605-.165-.808-.807-.275-1.046.129-.239.881-.44.991a2.432,2.432,0,0,1-1.523.073C226.62,120.26,226.859,117.838,226.859,117.838Z" transform="translate(-211.362 -111.605)"/><path class="r" d="M240.126,114.361c.22.881,1.1,3.441,6.882,2.67a9.276,9.276,0,0,0,7.487-5.643,3.918,3.918,0,0,0-.231-1.18,3.238,3.238,0,0,0-1.062-1.49,27.891,27.891,0,0,0-6.276,1.046,12.645,12.645,0,0,0-.22-5.175,3.6,3.6,0,0,0-2.462-2.115,2.353,2.353,0,0,0-1.722.546C240.374,104.645,239.906,113.48,240.126,114.361Z" transform="translate(-239.861 -102.412)"/><path class="s" d="M240.126,114.361c.22.881,1.1,3.441,6.882,2.67a9.276,9.276,0,0,0,7.487-5.643,3.918,3.918,0,0,0-.231-1.18c-1.225,1.249-5.562,5.241-9.9,4.1-2.78-.908-1.982-5.258-1.679-7.212.265-1.709.845-3.881,1.557-4.62a2.353,2.353,0,0,0-1.722.546C240.374,104.645,239.906,113.48,240.126,114.361Z" transform="translate(-239.861 -102.412)"/><path class="as" d="M240.469,110.239q.268-1.787.623-3.559a7.766,7.766,0,0,1,1.2-3.344,2.186,2.186,0,0,1,2.518-.9c.177.046.171.152-.014.138a2.359,2.359,0,0,0-2.219,1.095,7.326,7.326,0,0,0-.98,2.74c-.225,1.1-.422,2.21-.6,3.321a21.907,21.907,0,0,0-.363,3.042,4.037,4.037,0,0,0,.776,2.7,4.306,4.306,0,0,0,2.3,1.36,10.307,10.307,0,0,0,3.118.1,8.218,8.218,0,0,0,3.115-.813,9.416,9.416,0,0,0,2.625-1.856,14.884,14.884,0,0,0,2.021-2.62c.062-.1.232,0,.18.1a10.753,10.753,0,0,1-4.214,4.563,8.157,8.157,0,0,1-3.273.981,11.8,11.8,0,0,1-3.309.043,5.015,5.015,0,0,1-2.605-1.259,3.975,3.975,0,0,1-1.153-2.585A13.951,13.951,0,0,1,240.469,110.239Z" transform="translate(-240.193 -102.337)"/><path class="i" d="M236.617,117.686a11.609,11.609,0,0,0,.631,1.922h0c.245.64.47,1.188.47,1.188s1.184.193,1.431-.055a4.627,4.627,0,0,0,.11-1.836,3.336,3.336,0,0,0-.3-1.494C238.627,117.136,236.617,117.686,236.617,117.686Z" transform="translate(-223.277 -111.379)"/><path class="k" d="M236.617,121.994c.245.64.47,1.188.47,1.188s1.184.193,1.431-.055a4.627,4.627,0,0,0,.11-1.836,2.66,2.66,0,0,1-.908.543C237.416,121.882,236.774,121.972,236.617,121.994Z" transform="translate(-222.645 -113.765)"/><path class="s" d="M261.981,121.623s-.422,2.422-1.229,2.477.385-1.908.312-1.89-1.046,1.046-1.321.367S261.852,120.962,261.981,121.623Z" transform="translate(-255.146 -113.829)"/></g><path class="at" d="M228.481,121.12a.914.914,0,0,1,1-.483.842.842,0,0,1,.627,1.033.783.783,0,0,1-.867.633.809.809,0,0,1-.785-.606A.681.681,0,0,1,228.481,121.12Z" transform="translate(-210.861 -113.358)"/><path class="au" d="M229.279,121.738a.565.565,0,0,1,.617-.3.521.521,0,0,1,.388.639.485.485,0,0,1-.536.391.5.5,0,0,1-.486-.374A.423.423,0,0,1,229.279,121.738Z" transform="translate(-211.358 -113.847)"/></g></g></g></svg>