<svg xmlns="http://www.w3.org/2000/svg" width="14.815" height="13.898" viewBox="0 0 14.815 13.898"><defs><style>.a{fill:rgba(255,10,10,0.91);}</style></defs><g transform="translate(-335 -176.708)"><g transform="translate(515.592 15.668)"><g transform="translate(-180.592 161.039)"><path class="a" d="M-176.095,161.044a4.274,4.274,0,0,1,2.729,1.085c.135.117.214.131.353.009a4.346,4.346,0,0,1,7.137,2.326,4.1,4.1,0,0,1-1.074,3.741q-2.837,3.169-5.669,6.342l-.091.1c-.359.386-.6.388-.946,0-1.891-2.112-3.774-4.232-5.676-6.335a4.638,4.638,0,0,1-1.182-2.211,4.24,4.24,0,0,1,2.638-4.744A4.875,4.875,0,0,1-176.095,161.044Zm9.31,4.265a3,3,0,0,0,0-.4,3.323,3.323,0,0,0-3.312-2.881,3.3,3.3,0,0,0-2.643,1.23.523.523,0,0,1-.892.008,3.273,3.273,0,0,0-3.391-1.14,3.141,3.141,0,0,0-2.43,2.207,3.088,3.088,0,0,0,.7,3.156q1.314,1.481,2.637,2.953,1.38,1.543,2.76,3.086c.114.128.188.173.329.014q2.608-2.935,5.232-5.856A3.315,3.315,0,0,0-166.784,165.309Z" transform="translate(180.592 -161.039)"/></g></g><g transform="translate(0 -377)"><path class="a" d="M-176.095,161.044a4.274,4.274,0,0,1,2.729,1.085c.135.117.214.131.353.009a4.346,4.346,0,0,1,7.137,2.326,4.1,4.1,0,0,1-1.074,3.741q-2.837,3.169-5.669,6.342l-.091.1c-.359.386-.6.388-.946,0-1.891-2.112-3.774-4.232-5.676-6.335a4.638,4.638,0,0,1-1.182-2.211,4.24,4.24,0,0,1,2.638-4.744A4.875,4.875,0,0,1-176.095,161.044Zm9.31,4.265a3,3,0,0,0,0-.4,3.323,3.323,0,0,0-3.312-2.881,3.3,3.3,0,0,0-2.643,1.23.523.523,0,0,1-.892.008,3.273,3.273,0,0,0-3.391-1.14,3.141,3.141,0,0,0-2.43,2.207,3.088,3.088,0,0,0,.7,3.156q1.314,1.481,2.637,2.953,1.38,1.543,2.76,3.086c.114.128.188.173.329.014q2.608-2.935,5.232-5.856A3.315,3.315,0,0,0-166.784,165.309Z" transform="translate(515.592 392.668)"/><path class="a" d="M-33.365,295.193a4.011,4.011,0,0,1,2.564,1.02c.127.11.2.123.332.008a4.084,4.084,0,0,1,6.705,2.185,3.851,3.851,0,0,1-1.009,3.515q-2.665,2.977-5.326,5.959l-.086.094c-.337.363-.56.365-.889,0-1.777-1.984-3.546-3.975-5.333-5.951a4.36,4.36,0,0,1-1.11-2.077,3.984,3.984,0,0,1,2.479-4.457A4.581,4.581,0,0,1-33.365,295.193Z" transform="translate(373.091 258.945)"/></g></g></svg>